# xmcd
#
# Track frame offsets:
#	150
#	21084
#	44530
#	63252
#	86066
#	103340
#	124351
#	160735
#	179289
#	200356
#	219215
#	236139
#	257248
#	285791
#
# Disc length: 4551 seconds
#
# Revision: 0
# Processed by: cddbd v1.5PL3 Copyright (c) Steve Scherf et al.
# Submitted via: dBpowerAMP V4.0
#
DISCID=c511c50e
DTITLE=Ozcan Deniz - Aslan Gibi - Dokunma
DYEAR=2000
DGENRE=Pop-Folk
TTITLE0=01-Aslan Gibi
TTITLE1=02-Ah O Gözlerin
TTITLE2=03-Gelde Gör
TTITLE3=04-Dokunma
TTITLE4=05-Sosyete Kýzý
TTITLE5=06-Gemiler
TTITLE6=07-Cöl Rüzgarý
TTITLE7=08-Bir Gece Vakti
TTITLE8=09-Karlý Kayýn
TTITLE9=10-Gelesin
TTITLE10=11-Meger Dostum
TTITLE11=12-Sevdim Agam
TTITLE12=13-Potpori
TTITLE13=DATA
EXTD=Ozcan Deniz - Aslan Gibi,2000
EXTT0=
EXTT1=
EXTT2=
EXTT3=
EXTT4=
EXTT5=
EXTT6=
EXTT7=
EXTT8=
EXTT9=
EXTT10=
EXTT11=
EXTT12=
EXTT13=
PLAYORDER=
